<?xml version="1.0" standalone="no"?>
<!DOCTYPE svg PUBLIC "-//W3C//DTD SVG 20010904//EN"
 "http://www.w3.org/TR/2001/REC-SVG-20010904/DTD/svg10.dtd">
<svg version="1.0" xmlns="http://www.w3.org/2000/svg"
 width="300.000000pt" height="300.000000pt" viewBox="0 0 300.000000 300.000000"
 preserveAspectRatio="xMidYMid meet">
<metadata>
Created by potrace 1.10, written by Peter Selinger 2001-2011
</metadata>
<g transform="translate(0.000000,300.000000) scale(0.100000,-0.100000)"
fill="#000000" stroke="none">
<path d="M380 1640 l0 -820 653 0 654 0 26 23 c17 14 27 33 27 49 0 15 5 30
10 33 6 4 10 80 10 196 l0 190 -395 -1 -396 -2 0 576 1 576 -295 0 -295 0 0
-820z m540 197 l0 -578 400 3 400 3 0 -200 0 -200 -645 2 -645 3 0 770 c0 423
0 771 0 773 0 1 110 2 245 2 l245 0 0 -578z"/>
<path d="M2421 2098 c-92 -45 -180 -155 -282 -352 l-56 -108 -111 -2 c-108 -1
-111 -2 -141 -30 -76 -73 -6 -156 132 -156 36 0 48 -14 29 -35 -5 -6 -17 -30
-26 -55 -20 -52 -27 -67 -91 -210 -26 -58 -67 -152 -91 -209 -24 -57 -52 -113
-62 -125 -11 -12 -39 -50 -62 -85 -83 -125 -180 -198 -276 -209 -54 -6 -79 12
-96 71 -15 48 -48 73 -77 57 -47 -24 -53 -79 -17 -155 92 -200 322 -167 531
75 88 101 255 390 417 721 l81 167 131 22 c149 25 231 46 264 66 25 17 30 65
8 83 -16 14 -241 14 -287 1 -18 -5 -29 -5 -29 1 0 22 96 177 133 216 23 24 56
48 75 54 32 10 36 9 67 -21 28 -27 38 -31 65 -25 57 12 90 105 57 161 -17 30
-69 72 -111 89 -51 22 -123 19 -175 -7z m167 -38 c49 -26 66 -40 81 -67 14
-26 5 -73 -17 -90 -12 -10 -21 -7 -49 17 -85 75 -193 -2 -307 -220 l-59 -113
182 6 c134 4 181 2 178 -6 -5 -17 -72 -34 -247 -64 l-155 -27 -75 -155 c-85
-176 -280 -532 -348 -636 -63 -96 -203 -235 -271 -268 -63 -31 -144 -36 -190
-12 -57 29 -114 127 -98 169 11 27 22 18 44 -33 38 -91 110 -108 230 -52 82
39 169 127 236 240 66 110 181 351 270 562 l73 176 -88 5 c-125 8 -170 41
-113 86 22 18 36 19 133 14 l108 -5 57 112 c157 312 296 430 425 361z"/>
</g>
</svg>
